<svg xmlns="http://www.w3.org/2000/svg" width="256" height="256" viewBox="0 0 256 256">
  <rect x="0" y="0" width="256" height="256" fill="#2f4a49"/>

  <rect x="48" y="62" width="44" height="108" fill="#e6d9bf"/>
  <rect x="164" y="62" width="44" height="108" fill="#e6d9bf"/>
  <rect x="92" y="86" width="72" height="84" fill="#e6d9bf"/>
  <rect x="48" y="48" width="12" height="14" fill="#e6d9bf"/>
  <rect x="64" y="48" width="12" height="14" fill="#e6d9bf"/>
  <rect x="80" y="48" width="12" height="14" fill="#e6d9bf"/>
  <rect x="164" y="48" width="12" height="14" fill="#e6d9bf"/>
  <rect x="180" y="48" width="12" height="14" fill="#e6d9bf"/>
  <rect x="196" y="48" width="12" height="14" fill="#e6d9bf"/>
  <rect x="92" y="72" width="14" height="14" fill="#e6d9bf"/>
  <rect x="121" y="72" width="14" height="14" fill="#e6d9bf"/>
  <rect x="150" y="72" width="14" height="14" fill="#e6d9bf"/>
  <rect x="48" y="66" width="44" height="6" fill="#cf9f48"/>
  <rect x="164" y="66" width="44" height="6" fill="#cf9f48"/>
  <rect x="92" y="90" width="72" height="6" fill="#cf9f48"/>
  <rect x="130" y="32" width="3" height="54" fill="#e6d9bf"/>
  <path d="M133 36 L156 43 L133 50 Z" fill="#cf9f48"/>
  <path d="M108 170 L108 132 A20 20 0 0 1 148 132 L148 170 Z" fill="#26403f"/>
  <rect x="116" y="134" width="24" height="36" rx="3" fill="#f3ead9"/>
  <rect x="121" y="144" width="14" height="3" rx="1" fill="#8a94a0"/>
  <rect x="121" y="152" width="14" height="3" rx="1" fill="#a7afbb"/>
  <rect x="121" y="160" width="10" height="3" rx="1" fill="#a7afbb"/>
  <rect x="112" y="122" width="32" height="2" fill="#cf9f48"/>
  <rect x="112" y="127" width="32" height="2" fill="#cf9f48"/>
  <rect x="116" y="120" width="2" height="14" fill="#cf9f48"/>
  <rect x="127" y="120" width="2" height="14" fill="#cf9f48"/>
  <rect x="138" y="120" width="2" height="14" fill="#cf9f48"/>
  <rect x="40" y="170" width="176" height="12" rx="3" fill="#cf9f48"/>
  <rect x="112" y="184" width="32" height="40" rx="3" fill="#e6d9bf"/>
  <rect x="112" y="196" width="32" height="3" fill="#cf9f48"/>
  <rect x="112" y="212" width="32" height="3" fill="#cf9f48"/>
  <circle cx="118" cy="189" r="2" fill="#cf9f48"/>
  <circle cx="138" cy="189" r="2" fill="#cf9f48"/>
  <circle cx="118" cy="219" r="2" fill="#cf9f48"/>
  <circle cx="138" cy="219" r="2" fill="#cf9f48"/>
  <line x1="110" y1="120" x2="114" y2="222" stroke="#e2b864" stroke-width="3" stroke-linecap="round"/>
  <line x1="146" y1="120" x2="142" y2="222" stroke="#e2b864" stroke-width="3" stroke-linecap="round"/>
  <path d="M44 228 q14 -7 28 0 t28 0 t28 0 t28 0 t28 0 t28 0" fill="none" stroke="#cf9f48" stroke-width="3" stroke-linecap="round"/>
  <path d="M58 235 q14 -6 28 0 t28 0 t28 0 t28 0 t28 0" fill="none" stroke="#e2b864" stroke-width="2.5" stroke-linecap="round"/>
</svg>